<?xml version="1.0" encoding="UTF-8" standalone="no"?><svg xmlns:svg="http://www.w3.org/2000/svg" xmlns="http://www.w3.org/2000/svg" xmlns:xlink="http://www.w3.org/1999/xlink" version="1.0" width="64px" height="64px" viewBox="0 0 128 128" xml:space="preserve"><g><path d="M64 0l2.48 7.64h8.02L68 12.36 70.5 20 64 15.28 57.5 20l2.5-7.64-6.5-4.72h8.02z" fill="#2f50b5" fill-opacity="1"/><path d="M64 0l2.48 7.64h8.02L68 12.36 70.5 20 64 15.28 57.5 20l2.5-7.64-6.5-4.72h8.02z" fill="#f9fafd" fill-opacity="0.03" transform="rotate(30 64 64)"/><path d="M64 0l2.48 7.64h8.02L68 12.36 70.5 20 64 15.28 57.5 20l2.5-7.64-6.5-4.72h8.02z" fill="#eceff8" fill-opacity="0.09" transform="rotate(60 64 64)"/><path d="M64 0l2.48 7.64h8.02L68 12.36 70.5 20 64 15.28 57.5 20l2.5-7.64-6.5-4.72h8.02z" fill="#dce1f3" fill-opacity="0.17" transform="rotate(90 64 64)"/><path d="M64 0l2.48 7.64h8.02L68 12.36 70.5 20 64 15.28 57.5 20l2.5-7.64-6.5-4.72h8.02z" fill="#cad2ec" fill-opacity="0.25" transform="rotate(120 64 64)"/><path d="M64 0l2.48 7.64h8.02L68 12.36 70.5 20 64 15.28 57.5 20l2.5-7.64-6.5-4.72h8.02z" fill="#b6c2e5" fill-opacity="0.35" transform="rotate(150 64 64)"/><path d="M64 0l2.48 7.64h8.02L68 12.36 70.5 20 64 15.28 57.5 20l2.5-7.64-6.5-4.72h8.02z" fill="#a3b1de" fill-opacity="0.44" transform="rotate(180 64 64)"/><path d="M64 0l2.48 7.64h8.02L68 12.36 70.5 20 64 15.28 57.5 20l2.5-7.64-6.5-4.72h8.02z" fill="#8d9fd6" fill-opacity="0.55" transform="rotate(210 64 64)"/><path d="M64 0l2.48 7.64h8.02L68 12.36 70.5 20 64 15.28 57.5 20l2.5-7.64-6.5-4.72h8.02z" fill="#788ecf" fill-opacity="0.65" transform="rotate(240 64 64)"/><path d="M64 0l2.48 7.64h8.02L68 12.36 70.5 20 64 15.28 57.5 20l2.5-7.64-6.5-4.72h8.02z" fill="#647dc8" fill-opacity="0.75" transform="rotate(270 64 64)"/><path d="M64 0l2.48 7.64h8.02L68 12.36 70.5 20 64 15.28 57.5 20l2.5-7.64-6.5-4.72h8.02z" fill="#516dc1" fill-opacity="0.84" transform="rotate(300 64 64)"/><path d="M64 0l2.48 7.64h8.02L68 12.36 70.5 20 64 15.28 57.5 20l2.5-7.64-6.5-4.72h8.02z" fill="#405ebb" fill-opacity="0.92" transform="rotate(330 64 64)"/><animateTransform attributeName="transform" type="rotate" values="0 64 64;30 64 64;60 64 64;90 64 64;120 64 64;150 64 64;180 64 64;210 64 64;240 64 64;270 64 64;300 64 64;330 64 64" calcMode="discrete" dur="1080ms" repeatCount="indefinite"></animateTransform></g></svg>